
<global>
ampeg_release=0.5
master-volume=-6.0
</global>

<group>
group_label=Group

<region>
hikey=g#5
hivel=42
lokey=g5
lovel=0
pitch_keycenter=g#5
sample=Viola_tenuto_half_PP_G#5.opus
</region>

<region>
hikey=g#4
hivel=42
lokey=g4
lovel=0
pitch_keycenter=g#4
sample=Viola_tenuto_half_PP_G#4.opus
</region>

<region>
hikey=g#3
hivel=42
lokey=g3
lovel=0
pitch_keycenter=g#3
sample=Viola_tenuto_half_PP_G#3.opus
</region>

<region>
hikey=f#5
hivel=42
lokey=f5
lovel=0
pitch_keycenter=f#5
sample=Viola_tenuto_half_PP_F#5.opus
</region>

<region>
hikey=f#4
hivel=42
lokey=f4
lovel=0
pitch_keycenter=f#4
sample=Viola_tenuto_half_PP_F#4.opus
</region>

<region>
hikey=f#3
hivel=42
lokey=f3
lovel=0
pitch_keycenter=f#3
sample=Viola_tenuto_half_PP_F#3.opus
</region>

<region>
hikey=e5
hivel=42
lokey=d#5
lovel=0
pitch_keycenter=e5
sample=Viola_tenuto_half_PP_E5.opus
</region>

<region>
hikey=e4
hivel=42
lokey=d#4
lovel=0
pitch_keycenter=e4
sample=Viola_tenuto_half_PP_E4.opus
</region>

<region>
hikey=e3
hivel=42
lokey=d#3
lovel=0
pitch_keycenter=e3
sample=Viola_tenuto_half_PP_E3.opus
</region>

<region>
hikey=d5
hivel=42
lokey=c#5
lovel=0
pitch_keycenter=d5
sample=Viola_tenuto_half_PP_D5.opus
</region>

<region>
hikey=d4
hivel=42
lokey=c#4
lovel=0
pitch_keycenter=d4
sample=Viola_tenuto_half_PP_D4.opus
</region>

<region>
hikey=d3
hivel=42
lokey=c#3
lovel=0
pitch_keycenter=d3
sample=Viola_tenuto_half_PP_D3.opus
</region>

<region>
hikey=C#6
hivel=42
lokey=b5
lovel=0
pitch_keycenter=C6
sample=Viola_tenuto_half_PP_C6.opus
</region>

<region>
hikey=c5
hivel=42
lokey=b4
lovel=0
pitch_keycenter=c5
sample=Viola_tenuto_half_PP_C5.opus
</region>

<region>
hikey=c4
hivel=42
lokey=b3
lovel=0
pitch_keycenter=c4
sample=Viola_tenuto_half_PP_C4.opus
</region>

<region>
hivel=42
key=c3
lovel=0
sample=Viola_tenuto_half_PP_C3.opus
</region>

<region>
hikey=a#5
hivel=42
lokey=a5
lovel=0
pitch_keycenter=a#5
sample=Viola_tenuto_half_PP_A#5.opus
</region>

<region>
hikey=a#4
hivel=42
lokey=a4
lovel=0
pitch_keycenter=a#4
sample=Viola_tenuto_half_PP_A#4.opus
</region>

<region>
hikey=a#3
hivel=42
lokey=a3
lovel=0
pitch_keycenter=a#3
sample=Viola_tenuto_half_PP_A#3.opus
</region>

<region>
hikey=g#5
hivel=84
lokey=g5
lovel=43
pitch_keycenter=g#5
sample=Viola_tenuto_half_MF_G#5.opus
</region>

<region>
hikey=g#4
hivel=84
lokey=g4
lovel=43
pitch_keycenter=g#4
sample=Viola_tenuto_half_MF_G#4.opus
</region>

<region>
hikey=g#3
hivel=84
lokey=g3
lovel=43
pitch_keycenter=g#3
sample=Viola_tenuto_half_MF_G#3.opus
</region>

<region>
hikey=f#5
hivel=84
lokey=f5
lovel=43
pitch_keycenter=f#5
sample=Viola_tenuto_half_MF_F#5.opus
</region>

<region>
hikey=f#4
hivel=84
lokey=f4
lovel=43
pitch_keycenter=f#4
sample=Viola_tenuto_half_MF_F#4.opus
</region>

<region>
hikey=f#3
hivel=84
lokey=f3
lovel=43
pitch_keycenter=f#3
sample=Viola_tenuto_half_MF_F#3.opus
</region>

<region>
hikey=e5
hivel=84
lokey=d#5
lovel=43
pitch_keycenter=e5
sample=Viola_tenuto_half_MF_E5.opus
</region>

<region>
hikey=e4
hivel=84
lokey=d#4
lovel=43
pitch_keycenter=e4
sample=Viola_tenuto_half_MF_E4.opus
</region>

<region>
hikey=e3
hivel=84
lokey=d#3
lovel=43
pitch_keycenter=e3
sample=Viola_tenuto_half_MF_E3.opus
</region>

<region>
hikey=d5
hivel=84
lokey=c#5
lovel=43
pitch_keycenter=d5
sample=Viola_tenuto_half_MF_D5.opus
</region>

<region>
hikey=d4
hivel=84
lokey=c#4
lovel=43
pitch_keycenter=d4
sample=Viola_tenuto_half_MF_D4.opus
</region>

<region>
hikey=d3
hivel=84
lokey=c#3
lovel=43
pitch_keycenter=d3
sample=Viola_tenuto_half_MF_D3.opus
</region>

<region>
hikey=C#6
hivel=84
lokey=b5
lovel=43
pitch_keycenter=C6
sample=Viola_tenuto_half_MF_C6.opus
</region>

<region>
hikey=c5
hivel=84
lokey=b4
lovel=43
pitch_keycenter=c5
sample=Viola_tenuto_half_MF_C5.opus
</region>

<region>
hikey=c4
hivel=84
lokey=b3
lovel=43
pitch_keycenter=c4
sample=Viola_tenuto_half_MF_C4.opus
</region>

<region>
hivel=84
key=c3
lovel=43
sample=Viola_tenuto_half_MF_C3.opus
</region>

<region>
hikey=a#5
hivel=84
lokey=a5
lovel=43
pitch_keycenter=a#5
sample=Viola_tenuto_half_MF_A#5.opus
</region>

<region>
hikey=a#4
hivel=84
lokey=a4
lovel=43
pitch_keycenter=a#4
sample=Viola_tenuto_half_MF_A#4.opus
</region>

<region>
hikey=a#3
hivel=84
lokey=a3
lovel=43
pitch_keycenter=a#3
sample=Viola_tenuto_half_MF_A#3.opus
</region>

<region>
hikey=g#5
hivel=127
lokey=g5
lovel=85
pitch_keycenter=g#5
sample=Viola_tenuto_half_FF_G#5.opus
</region>

<region>
hikey=g#4
hivel=127
lokey=g4
lovel=85
pitch_keycenter=g#4
sample=Viola_tenuto_half_FF_G#4.opus
</region>

<region>
hikey=g#3
hivel=127
lokey=g3
lovel=85
pitch_keycenter=g#3
sample=Viola_tenuto_half_FF_G#3.opus
</region>

<region>
hikey=f#5
hivel=127
lokey=f5
lovel=85
pitch_keycenter=f#5
sample=Viola_tenuto_half_FF_F#5.opus
</region>

<region>
hikey=f#4
hivel=127
lokey=f4
lovel=85
pitch_keycenter=f#4
sample=Viola_tenuto_half_FF_F#4.opus
</region>

<region>
hikey=f#3
hivel=127
lokey=f3
lovel=85
pitch_keycenter=f#3
sample=Viola_tenuto_half_FF_F#3.opus
</region>

<region>
hikey=e5
hivel=127
lokey=d#5
lovel=85
pitch_keycenter=e5
sample=Viola_tenuto_half_FF_E5.opus
</region>

<region>
hikey=e4
hivel=127
lokey=d#4
lovel=85
pitch_keycenter=e4
sample=Viola_tenuto_half_FF_E4.opus
</region>

<region>
hikey=e3
hivel=127
lokey=d#3
lovel=85
pitch_keycenter=e3
sample=Viola_tenuto_half_FF_E3.opus
</region>

<region>
hikey=d5
hivel=127
lokey=c#5
lovel=85
pitch_keycenter=d5
sample=Viola_tenuto_half_FF_D5.opus
</region>

<region>
hikey=d4
hivel=127
lokey=c#4
lovel=85
pitch_keycenter=d4
sample=Viola_tenuto_half_FF_D4.opus
</region>

<region>
hikey=d3
hivel=127
lokey=c#3
lovel=85
pitch_keycenter=d3
sample=Viola_tenuto_half_FF_D3.opus
</region>

<region>
hikey=C#6
hivel=127
lokey=b5
lovel=85
pitch_keycenter=C6
sample=Viola_tenuto_half_FF_C6.opus
</region>

<region>
hikey=c5
hivel=127
lokey=b4
lovel=85
pitch_keycenter=c5
sample=Viola_tenuto_half_FF_C5.opus
</region>

<region>
hikey=c4
hivel=127
lokey=b3
lovel=85
pitch_keycenter=c4
sample=Viola_tenuto_half_FF_C4.opus
</region>

<region>
hivel=127
key=c3
lovel=85
sample=Viola_tenuto_half_FF_C3.opus
</region>

<region>
hikey=a#5
hivel=127
lokey=a5
lovel=85
pitch_keycenter=a#5
sample=Viola_tenuto_half_FF_A#5.opus
</region>

<region>
hikey=a#4
hivel=127
lokey=a4
lovel=85
pitch_keycenter=a#4
sample=Viola_tenuto_half_FF_A#4.opus
</region>

<region>
hikey=a#3
hivel=127
lokey=a3
lovel=85
pitch_keycenter=a#3
sample=Viola_tenuto_half_FF_A#3.opus
</region>
</group>